<svg xmlns="http://www.w3.org/2000/svg" width="216" height="70" viewBox="0 0 216 70" fill="none"><path fill-rule="evenodd" clip-rule="evenodd" d="M30.1863 0.238103C30.7089 -0.0718353 31.3606 -0.0797738 31.8907 0.217715L63.0107 17.6878C63.5367 17.9832 63.8629 18.535 63.8629 19.1318V52.1843C63.8627 52.8004 63.5156 53.3673 62.962 53.6546L31.8395 69.8091C31.3359 70.0703 30.7307 70.063 30.2325 69.7899L0.865595 53.681C0.367232 53.4074 0.0446838 52.9056 0.0036523 52.351L0 52.231V19.0862C2.05721e-05 18.5038 0.310527 17.9632 0.816898 17.6626L30.185 0.236904L30.1863 0.238103ZM21.4427 54.5061C19.8624 54.5061 19.2232 56.5133 20.5223 57.4012L30.4626 64.1856C31.0151 64.5622 31.7486 64.5624 32.3009 64.1856L42.2401 57.4012C43.5396 56.5133 42.9007 54.5064 41.3209 54.5061H21.4427ZM32.738 37.7388L37.4385 42.5887H32.7745L29.0614 38.7558L29.0528 38.7474L25.3555 34.8773L5.20575 50.8231H60.6355L40.1132 31.5996L32.738 37.7388ZM3.97614 19.6654L3.37229 20.0228V48.0119L23.4027 32.1621L23.4015 32.1609L23.5379 32.0601C24.7709 31.1863 26.4696 31.3066 27.5639 32.3468L27.6723 32.4547L29.6031 34.4767L30.4139 35.3234L38.0874 28.9372C39.2732 27.9504 41.0042 27.9652 42.1707 28.9492L42.3156 29.0787L60.4906 46.1027V20.0972L31.0786 3.58533L3.97614 19.6654Z" fill="black"></path><path d="M82.86 25.112H83.664C83.968 25.112 84.216 25.072 84.408 24.992C84.6 24.904 84.772 24.768 84.924 24.584L90.156 18.344C90.34 18.112 90.528 17.952 90.72 17.864C90.92 17.768 91.168 17.72 91.464 17.72H93.864L87.684 25.016C87.516 25.224 87.352 25.4 87.192 25.544C87.04 25.68 86.872 25.792 86.688 25.88C86.928 25.968 87.144 26.092 87.336 26.252C87.528 26.404 87.716 26.608 87.9 26.864L94.308 35H91.86C91.684 35 91.532 34.988 91.404 34.964C91.284 34.94 91.176 34.904 91.08 34.856C90.992 34.808 90.912 34.748 90.84 34.676C90.776 34.604 90.716 34.524 90.66 34.436L85.26 27.836C85.18 27.732 85.1 27.644 85.02 27.572C84.94 27.5 84.844 27.44 84.732 27.392C84.628 27.344 84.508 27.312 84.372 27.296C84.236 27.272 84.076 27.26 83.892 27.26H82.86V35H80.052V17.72H82.86V25.112ZM108.715 32.732L108.703 35H97.9273V17.72H108.703V19.988H100.747V25.196H107.107V27.392H100.747V32.732H108.715ZM120.419 28.232V35H117.623V28.232L111.311 17.72H113.771C114.019 17.72 114.215 17.78 114.359 17.9C114.503 18.02 114.623 18.172 114.719 18.356L118.259 24.548C118.419 24.86 118.563 25.156 118.691 25.436C118.827 25.716 118.947 25.992 119.051 26.264C119.139 25.984 119.247 25.708 119.375 25.436C119.503 25.156 119.647 24.86 119.807 24.548L123.323 18.356C123.403 18.196 123.519 18.052 123.671 17.924C123.823 17.788 124.019 17.72 124.259 17.72H126.731L120.419 28.232ZM94.2 49.492V56.332C92.48 57.572 90.48 58.192 88.2 58.192C86.8 58.192 85.532 57.976 84.396 57.544C83.268 57.104 82.304 56.496 81.504 55.72C80.704 54.936 80.088 54.004 79.656 52.924C79.224 51.844 79.008 50.656 79.008 49.36C79.008 48.056 79.216 46.864 79.632 45.784C80.048 44.696 80.644 43.764 81.42 42.988C82.196 42.204 83.132 41.6 84.228 41.176C85.324 40.744 86.556 40.528 87.924 40.528C88.62 40.528 89.264 40.584 89.856 40.696C90.456 40.8 91.012 40.948 91.524 41.14C92.036 41.332 92.508 41.564 92.94 41.836C93.372 42.108 93.768 42.412 94.128 42.748L93.324 44.032C93.196 44.232 93.032 44.356 92.832 44.404C92.632 44.452 92.416 44.404 92.184 44.26C91.952 44.124 91.704 43.98 91.44 43.828C91.184 43.676 90.888 43.536 90.552 43.408C90.216 43.272 89.828 43.164 89.388 43.084C88.948 42.996 88.428 42.952 87.828 42.952C86.916 42.952 86.092 43.104 85.356 43.408C84.628 43.704 84.004 44.132 83.484 44.692C82.964 45.244 82.564 45.916 82.284 46.708C82.004 47.5 81.864 48.384 81.864 49.36C81.864 50.392 82.012 51.316 82.308 52.132C82.604 52.94 83.024 53.628 83.568 54.196C84.112 54.756 84.768 55.184 85.536 55.48C86.312 55.776 87.176 55.924 88.128 55.924C88.84 55.924 89.472 55.848 90.024 55.696C90.584 55.544 91.132 55.332 91.668 55.06V51.628H89.256C89.072 51.628 88.928 51.58 88.824 51.484C88.72 51.38 88.668 51.248 88.668 51.088V49.492H94.2ZM109.981 55.732L109.969 58H99.1929V40.72H109.969V42.988H102.013V48.196H108.373V50.392H102.013V55.732H109.981ZM126.593 43.06H121.205V58H118.409V43.06H113.009V40.72H126.593V43.06ZM138.134 51.52L135.758 45.208C135.566 44.72 135.37 44.1 135.17 43.348C135.082 43.724 134.986 44.072 134.882 44.392C134.778 44.704 134.682 44.98 134.594 45.22L132.218 51.52H138.134ZM143.45 58H141.278C141.03 58 140.83 57.94 140.678 57.82C140.526 57.692 140.41 57.536 140.33 57.352L138.89 53.536H131.45L130.01 57.352C129.946 57.512 129.834 57.66 129.674 57.796C129.514 57.932 129.314 58 129.074 58H126.902L133.754 40.72H136.598L143.45 58ZM168.761 40.72L163.385 58H160.853L156.797 45.592C156.749 45.456 156.701 45.308 156.653 45.148C156.613 44.988 156.573 44.816 156.533 44.632C156.493 44.816 156.449 44.988 156.401 45.148C156.361 45.308 156.317 45.456 156.269 45.592L152.177 58H149.645L144.269 40.72H146.621C146.861 40.72 147.061 40.78 147.221 40.9C147.389 41.012 147.501 41.168 147.557 41.368L150.797 52.444C150.861 52.684 150.921 52.944 150.977 53.224C151.033 53.504 151.089 53.796 151.145 54.1C151.201 53.796 151.261 53.504 151.325 53.224C151.397 52.936 151.473 52.676 151.553 52.444L155.261 41.368C155.317 41.208 155.429 41.06 155.597 40.924C155.765 40.788 155.965 40.72 156.197 40.72H157.013C157.261 40.72 157.461 40.784 157.613 40.912C157.765 41.032 157.881 41.184 157.961 41.368L161.657 52.444C161.737 52.676 161.809 52.928 161.873 53.2C161.945 53.464 162.009 53.744 162.065 54.04C162.121 53.744 162.173 53.464 162.221 53.2C162.277 52.928 162.337 52.676 162.401 52.444L165.629 41.368C165.677 41.192 165.785 41.04 165.953 40.912C166.129 40.784 166.333 40.72 166.565 40.72H168.761ZM180.823 51.52L178.447 45.208C178.255 44.72 178.059 44.1 177.859 43.348C177.771 43.724 177.675 44.072 177.571 44.392C177.467 44.704 177.371 44.98 177.283 45.22L174.907 51.52H180.823ZM186.139 58H183.967C183.719 58 183.519 57.94 183.367 57.82C183.215 57.692 183.099 57.536 183.019 57.352L181.579 53.536H174.139L172.699 57.352C172.635 57.512 172.523 57.66 172.363 57.796C172.203 57.932 172.003 58 171.763 58H169.591L176.443 40.72H179.287L186.139 58ZM195.085 51.232V58H192.289V51.232L185.977 40.72H188.437C188.685 40.72 188.881 40.78 189.025 40.9C189.169 41.02 189.289 41.172 189.385 41.356L192.925 47.548C193.085 47.86 193.229 48.156 193.357 48.436C193.493 48.716 193.613 48.992 193.717 49.264C193.805 48.984 193.913 48.708 194.041 48.436C194.169 48.156 194.313 47.86 194.473 47.548L197.989 41.356C198.069 41.196 198.185 41.052 198.337 40.924C198.489 40.788 198.685 40.72 198.925 40.72H201.397L195.085 51.232ZM213.512 43.672C213.424 43.816 213.332 43.924 213.236 43.996C213.14 44.06 213.02 44.092 212.876 44.092C212.724 44.092 212.552 44.028 212.36 43.9C212.176 43.772 211.944 43.632 211.664 43.48C211.392 43.32 211.068 43.176 210.692 43.048C210.316 42.912 209.868 42.844 209.348 42.844C208.868 42.844 208.444 42.904 208.076 43.024C207.716 43.144 207.412 43.312 207.164 43.528C206.916 43.744 206.728 44 206.6 44.296C206.48 44.584 206.42 44.9 206.42 45.244C206.42 45.684 206.536 46.052 206.768 46.348C207 46.636 207.304 46.884 207.68 47.092C208.064 47.3 208.5 47.484 208.988 47.644C209.476 47.796 209.972 47.96 210.476 48.136C210.988 48.312 211.488 48.512 211.976 48.736C212.464 48.96 212.896 49.244 213.272 49.588C213.656 49.932 213.964 50.352 214.196 50.848C214.428 51.344 214.544 51.948 214.544 52.66C214.544 53.428 214.412 54.148 214.148 54.82C213.884 55.492 213.5 56.08 212.996 56.584C212.5 57.08 211.884 57.472 211.148 57.76C210.42 58.048 209.588 58.192 208.652 58.192C208.1 58.192 207.56 58.136 207.032 58.024C206.512 57.92 206.012 57.772 205.532 57.58C205.06 57.38 204.616 57.14 204.2 56.86C203.784 56.58 203.412 56.268 203.084 55.924L203.9 54.58C203.972 54.468 204.064 54.38 204.176 54.316C204.288 54.252 204.412 54.22 204.548 54.22C204.732 54.22 204.936 54.308 205.16 54.484C205.384 54.652 205.652 54.84 205.964 55.048C206.284 55.248 206.668 55.436 207.116 55.612C207.564 55.78 208.1 55.864 208.724 55.864C209.74 55.864 210.524 55.616 211.076 55.12C211.636 54.624 211.916 53.94 211.916 53.068C211.916 52.58 211.8 52.184 211.568 51.88C211.336 51.568 211.028 51.308 210.644 51.1C210.268 50.892 209.836 50.716 209.348 50.572C208.86 50.428 208.364 50.276 207.86 50.116C207.356 49.948 206.86 49.756 206.372 49.54C205.884 49.316 205.448 49.028 205.064 48.676C204.688 48.316 204.384 47.876 204.152 47.356C203.92 46.828 203.804 46.172 203.804 45.388C203.804 44.764 203.924 44.16 204.164 43.576C204.412 42.992 204.768 42.476 205.232 42.028C205.704 41.572 206.284 41.208 206.972 40.936C207.66 40.664 208.444 40.528 209.324 40.528C210.316 40.528 211.224 40.684 212.048 40.996C212.88 41.308 213.596 41.752 214.196 42.328L213.512 43.672Z" fill="black"></path></svg>